<svg
  width="14"
  height="14"
  viewBox="0 0 14 14"
  fill="none"
  xmlns="http://www.w3.org/2000/svg"
>
  <path
    d="M6.99992 0.333252C3.32659 0.333252 0.333252 3.32659 0.333252 6.99992C0.333252 10.6733 3.32659 13.6666 6.99992 13.6666C10.6733 13.6666 13.6666 10.6733 13.6666 6.99992C13.6666 3.32659 10.6733 0.333252 6.99992 0.333252ZM1.00659 6.99992C1.00659 6.13325 1.19325 5.30659 1.52659 4.55992L4.38658 12.3933C2.38658 11.4199 1.00659 9.37325 1.00659 6.99992ZM6.99992 12.9933C6.41325 12.9933 5.84658 12.9066 5.30658 12.7466L7.10658 7.51992L8.94658 12.5666C8.95992 12.5933 8.97325 12.6266 8.98658 12.6466C8.36658 12.8733 7.69992 12.9933 6.99992 12.9933ZM7.82658 4.18659C8.18658 4.16659 8.51325 4.12659 8.51325 4.12659C8.83325 4.08659 8.79992 3.61325 8.47325 3.63325C8.47325 3.63325 7.49992 3.70658 6.87325 3.70658C6.28659 3.70658 5.29325 3.63325 5.29325 3.63325C4.97325 3.61992 4.93325 4.11325 5.25992 4.13325C5.25992 4.13325 5.56659 4.17325 5.88658 4.19325L6.81992 6.75325L5.50659 10.6866L3.32659 4.18659C3.68658 4.17325 4.01325 4.13325 4.01325 4.13325C4.33325 4.09325 4.29992 3.61992 3.97325 3.63992C3.97325 3.63992 2.99992 3.71325 2.37325 3.71325C2.25992 3.71325 2.12659 3.71325 1.98659 3.70658C3.06659 2.07992 4.90658 1.00659 6.99992 1.00659C8.55992 1.00659 9.97992 1.59992 11.0466 2.57992C11.0199 2.57992 10.9933 2.57325 10.9666 2.57325C10.3799 2.57325 9.95992 3.08659 9.95992 3.63992C9.95992 4.13325 10.2466 4.55325 10.5466 5.04658C10.7733 5.44658 11.0399 5.95992 11.0399 6.69992C11.0399 7.21325 10.8399 7.80658 10.5866 8.63992L9.98658 10.6399L7.82658 4.18659ZM12.2599 4.12659C13.0084 5.49708 13.1924 7.10558 12.7728 8.60971C12.3532 10.1138 11.3631 11.3948 10.0133 12.1799L11.8466 6.88658C12.1866 6.03325 12.2999 5.34658 12.2999 4.73992C12.2999 4.51992 12.2866 4.31325 12.2599 4.12659Z"
    fill="white"
  />
</svg>
